#!OML:ASF F:\VICON\USERDATA\INSTALL\rory3\rory3.ASF
:FULLY-SPECIFIED
:DEGREES
99
root 0.4368698669524879 17.633364108692504 48.93899105063434 -2.3951914485860466 -0.318522126371743 2.4810526610890338
lfemur 5.591723000739055 -3.5539849749723373 -27.66540494363494
ltibia 15.73700535235475
lfoot -18.7564721306464 0.14060183965550976
ltoes -3.467556504946632
rfemur -31.79876539958952 2.1833594283418263 17.279297047354753
rtibia 28.749751278874786
rfoot -10.534142451068188 -16.755580023341995
rtoes -0.9520007388406455
lowerback 9.999913714751262 -0.9612679965848209 -4.079250268688262
upperback 0.5377069372591403 -1.6723767094663504 0.9162081366779479
thorax -5.016123078767746 -0.7194240656564633 3.3852316723540627
lowerneck -16.195669267470528 -2.848237013662854 -3.617374228657619
upperneck 18.68320970948229 -3.474356365700648 1.9801335636957504
head 8.57904106330155 -1.665900185107916 0.8376976500372973
lclavicle -2.192769189369445e-15 -1.763837974818573e-15
lhumerus -23.258628391342583 -4.033078952506936 79.23055077708442
lradius 25.132687217396487
lwrist 7.569027253928223
lhand -30.610704972012055 18.869705602090495
lfingers 7.125020000000053
lthumb -3.9068985416512074 48.84095054671843
rclavicle -2.192769189369445e-15 -1.763837974818573e-15
rhumerus -33.51721224875557 -17.945322141326493 -81.17969879335766
rradius 26.871714150684127
rwrist 1.5826232154728928
rhand -17.141188121919985 30.039404910084823
rfingers 7.125020000000053
rthumb 9.099434901952648 -6.187190920172311
100
root 0.4232409949883029 17.58543916762634 49.501258364397884 -1.7738440066840844 0.24264901025044905 2.7676582120004167
lfemur 9.266783794992474 -3.5809872506908027 -27.651770549083658
ltibia 13.24687889093266
lfoot -18.59919429168138 -0.47402018625577647
ltoes -6.472282349750829
rfemur -31.196045703340765 4.279762278615328 16.408936358139094
rtibia 19.965713443133648
rfoot -10.363945644047071 -17.56202305327581
rtoes -2.619622606217969
lowerback 9.759099995434122 -1.175522355696779 -4.464885123845354
upperback 0.46155976789582415 -1.9924036105083562 1.0154514790891978
thorax -4.898497110691574 -0.8688462119940507 3.801013475909256
lowerneck -16.307587363369855 -2.8448330754813687 -3.6189890666535574
upperneck 18.786570332099974 -3.4738542894956446 2.057473972661226
head 8.640823306260561 -1.6601724405340463 0.8610188623166901
lclavicle -1.912633904878604e-15 -1.5469283976456758e-15
lhumerus -21.541961853147047 -4.720724267887867 79.10809341700516
lradius 26.86688178798031
lwrist 8.254924679411308
lhand -30.7902068116545 18.791421507593444
lfingers 7.125020000000054
lthumb -4.080269662029741 48.756386493566524
rclavicle -1.912633904878604e-15 -1.5469283976456758e-15
rhumerus -34.323453972015116 -18.78007420473546 -80.27566895034937
rradius 26.13211598671836
rwrist 2.749588771803192
rhand -17.16419682124229 30.20174530008139
rfingers 7.125020000000054
rthumb 9.07728016219783 -5.814245561045669
101
root 0.3997325688176975 17.530460188831 49.914211983352196 -1.462531225816977 0.6092750165922527 2.743648778290924
lfemur 12.03762737008309 -4.0620431861818656 -27.48022029329546
ltibia 12.661305262960155
lfoot -18.147781840940013 -1.2999193501247253
ltoes -10.443577558813741
rfemur -30.88847057095184 5.2224270077705315 16.345234447029974
rtibia 16.506484367662893
rfoot -9.811397510771256 -16.504619657684177
rtoes -3.887700986246718
lowerback 9.651294863490184 -1.3341295483005098 -4.605118670324653
upperback 0.40122447690823576 -2.2113069657942783 1.165467924906796
thorax -4.875374893075659 -0.9719145644996293 4.071839953634995
lowerneck -16.4316673703038 -2.826779495779039 -3.5987777750479566
upperneck 18.970692324211505 -3.4412772191704954 2.0185349800598646
head 8.728741540270534 -1.647191872703202 0.8453672035590022
lclavicle -1.8516074800015744e-15 -1.4996754605529733e-15
lhumerus -20.558064572267696 -4.943799601596453 79.10910876554752
lradius 28.01228252236327
lwrist 8.564802295013681
lhand -31.245669067835493 18.11594100893972
lfingers 7.125020000000054
lthumb -4.520113622162702 48.074815035592316
rclavicle -1.8516074800015744e-15 -1.4996754605529733e-15
rhumerus -35.34474903907218 -20.295709434776438 -79.08697651762503
rradius 24.74494970520879
rwrist 4.364975708962262
rhand -17.246460841699793 30.304914025187045
rfingers 7.125020000000054
rthumb 8.997941492520326 -5.68273881934471
102
root 0.3801152815551155 17.49134336531481 50.80709827809714 -1.391272151349484 0.8239166111983609 2.424304689992798
lfemur 14.017521376532553 -4.8116884494120695 -26.958706250765662
ltibia 14.86566994136075
lfoot -16.5174175077271 -2.442806519036995
ltoes -14.713195068913448
rfemur -30.558986081254154 5.151429475404616 17.266890543384505
rtibia 18.260914715233998
rfoot -8.371331762327209 -13.892662818698588
rtoes -3.7443640078087226
lowerback 9.69388082174165 -1.4225632712493006 -4.3429236631907475
upperback 0.3662755150320844 -2.291431253032021 1.4073283771353917
thorax -4.894461743980491 -1.0140886246959098 4.226223913635344
lowerneck -16.492463593574758 -2.7500083504639283 -3.554274389940927
upperneck 19.288922148934823 -3.3020711319884866 1.8662401151008623
head 8.84560433200008 -1.599326724293922 0.7974094071997375
lclavicle -1.5600023834454339e-15 -1.273884810400138e-15
lhumerus -20.07078703597759 -4.549178728416267 79.37348348651851
lradius 29.423009606931306
lwrist 8.858064312490129
lhand -31.80312395175103 17.429241622242998
lfingers 7.125020000000055
lthumb -5.0584404497000905 47.38253900125121
rclavicle -1.5600023834454339e-15 -1.273884810400138e-15
rhumerus -36.36163974611203 -22.071292613425374 -77.3332327600856
rradius 23.729637315691605
rwrist 6.585991849373014
rhand -17.316063405138806 30.5165484133694
rfingers 7.125020000000055
rthumb 8.930809080973107 -5.644929906698582
